# xmcd
#
# Track frame offsets:
#	150
#	6949
#	26840
#	41980
#	63266
#	87053
#	102130
#	117209
#	134993
#	145926
#	168812
#	180679
#	193783
#	218875
#	231196
#
# Disc length: 3362 seconds
#
# Revision: 1
# Processed by: cddbd v1.5.2PL0 Copyright (c) Steve Scherf et al.
# Submitted via: EasyCDDAExtractor 16.0.3.2
#
DISCID=d70d200f
DTITLE=Blues do pais - Ruta 120
DYEAR=2016
DGENRE=Blues
TTITLE0=Intro
TTITLE1=Diva rural e Bluesmanciño
TTITLE2=Mirarche o cu
TTITLE3=Arraianos
TTITLE4=O camión do lixo
TTITLE5=San Martiño is tonite
TTITLE6=Estou de lúa
TTITLE7=Nunca fuches meu
TTITLE8=As Marías
TTITLE9=Regueifa Blues
TTITLE10=Os Zocos
TTITLE11=Fuches tu
TTITLE12=Mollo
TTITLE13=O tren (bonus track)
TTITLE14=Os marcos do ceo (bonus track)
EXTD=
EXTT0=
EXTT1=
EXTT2=
EXTT3=
EXTT4=
EXTT5=
EXTT6=
EXTT7=
EXTT8=
EXTT9=
EXTT10=
EXTT11=
EXTT12=
EXTT13=
EXTT14=
PLAYORDER=
